Coordinates
version=1
nRows=16
nColumns=34
inDegrees=no

Units are S.I. units (second, meters, Newtons, ...)
If the header above contains a line with 'inDegrees', this indicates whether rotational values are in degrees (yes) or radians (no).

endheader
time	pelvis_tilt	pelvis_list	pelvis_rotation	pelvis_tx	pelvis_ty	pelvis_tz	hip_flexion_r	hip_adduction_r	hip_rotation_r	knee_angle_r	ankle_angle_r	subtalar_angle_r	mtp_angle_r	hip_flexion_l	hip_adduction_l	hip_rotation_l	knee_angle_l	ankle_angle_l	subtalar_angle_l	mtp_angle_l	lumbar_extension	lumbar_bending	lumbar_rotation	arm_flex_r	arm_add_r	arm_rot_r	elbow_flex_r	pro_sup_r	arm_flex_l	arm_add_l	arm_rot_l	elbow_flex_l	pro_sup_l
10.0194	0.017604	0.00636968	2.3338	1.32223	0.884147	-0.85937	0.116373	-0.297997	-0.686723	0.437732	0.122886	0.611924	-0.130709	0.0542305	-0.263545	-0.50527	0.187741	0.0440734	0.612575	-0.130709	-0.0918584	0.0181648	0.160329	1.58944	-0.315331	0.624799	0.495768	2.09	1.54034	-0.00859916	0.432464	0.694166	2.09
10.0394	0.0188992	0.00769652	2.3357	1.32275	0.883805	-0.858958	0.118608	-0.296548	-0.684669	0.441655	0.125753	0.611684	-0.130709	0.0625948	-0.269955	-0.505426	0.203364	0.0504746	0.61178	-0.130709	-0.0918077	0.0195984	0.159465	1.58896	-0.31727	0.62204	0.500975	2.09	1.53736	-0.0107536	0.429471	0.705142	2.09
10.0594	0.0201975	0.00917029	2.33763	1.32327	0.88345	-0.858553	0.120717	-0.294931	-0.682497	0.44553	0.128793	0.610572	-0.130709	0.0708625	-0.276403	-0.504886	0.218814	0.0568975	0.611219	-0.130709	-0.0918912	0.0211509	0.158592	1.58813	-0.319215	0.619081	0.506391	2.09	1.53405	-0.0129836	0.426463	0.71643	2.09
10.0794	0.0218085	0.0107301	2.33953	1.32382	0.88306	-0.858151	0.123027	-0.292864	-0.679949	0.449303	0.132092	0.607998	-0.130709	0.079576	-0.283283	-0.503967	0.234713	0.0635388	0.610892	-0.130709	-0.0918456	0.023015	0.157807	1.58699	-0.321176	0.615965	0.511961	2.09	1.53047	-0.0152508	0.423489	0.727906	2.09
10.0994	0.0238823	0.012331	2.34131	1.32441	0.882626	-0.857751	0.125735	-0.2902	-0.676785	0.452946	0.135713	0.60342	-0.130709	0.0889235	-0.290735	-0.502826	0.251206	0.0704236	0.610741	-0.130709	-0.0915333	0.0252706	0.157194	1.58556	-0.323137	0.612754	0.51761	2.09	1.52665	-0.017568	0.42057	0.739538	2.09
10.1194	0.0263839	0.0139719	2.34289	1.32504	0.882153	-0.857353	0.128854	-0.286958	-0.672905	0.456467	0.139655	0.596752	-0.130709	0.0987577	-0.298675	-0.501508	0.268072	0.077454	0.610705	-0.130709	-0.0909783	0.0278858	0.156844	1.5839	-0.32512	0.609509	0.523283	2.09	1.52279	-0.0198798	0.417841	0.750983	2.09
10.1394	0.0291465	0.0156645	2.34421	1.3257	0.881654	-0.856959	0.132271	-0.283322	-0.668424	0.45994	0.14382	0.588529	-0.130709	0.108744	-0.306867	-0.500012	0.284907	0.0844696	0.610743	-0.130709	-0.0903085	0.0307335	0.156774	1.58205	-0.327117	0.606276	0.528935	2.09	1.51902	-0.0221852	0.415382	0.76204	2.09
10.1594	0.0319931	0.0174038	2.34527	1.32639	0.88114	-0.856571	0.135884	-0.279528	-0.663539	0.463501	0.148095	0.5794	-0.130709	0.118586	-0.31507	-0.498343	0.301365	0.0913389	0.610838	-0.130709	-0.0896492	0.0336626	0.156918	1.58008	-0.329081	0.60307	0.534535	2.09	1.51534	-0.0245572	0.413145	0.772786	2.09
10.1794	0.0347847	0.0191677	2.34608	1.32709	0.880617	-0.856189	0.139648	-0.275797	-0.658414	0.467323	0.152407	0.569857	-0.130709	0.128097	-0.323101	-0.49652	0.317237	0.0979906	0.610996	-0.130709	-0.0890858	0.0365361	0.15718	1.57801	-0.330965	0.599888	0.540094	2.09	1.51172	-0.0270697	0.411045	0.783366	2.09
10.1994	0.0374274	0.0209239	2.34668	1.32779	0.880083	-0.855812	0.143565	-0.272303	-0.653146	0.471578	0.15673	0.56016	-0.130709	0.137196	-0.330832	-0.494564	0.332452	0.104418	0.611223	-0.130709	-0.0886603	0.0392443	0.157467	1.57586	-0.332749	0.596708	0.545658	2.09	1.50811	-0.0297577	0.409008	0.793881	2.09
10.2194	0.0398619	0.022638	2.34711	1.3285	0.879538	-0.85544	0.14766	-0.269164	-0.647764	0.476402	0.16108	0.550388	-0.130709	0.145873	-0.338184	-0.492471	0.347032	0.110664	0.611508	-0.130709	-0.0883831	0.0417069	0.157713	1.57362	-0.334448	0.593495	0.551304	2.09	1.50448	-0.0326027	0.407	0.804347	2.09
10.2394	0.0420497	0.0242805	2.34745	1.3292	0.878977	-0.855072	0.151947	-0.266453	-0.64225	0.481866	0.165491	0.540518	-0.130709	0.154155	-0.345099	-0.490198	0.361048	0.116804	0.61178	-0.130709	-0.0882475	0.043869	0.157891	1.57126	-0.336104	0.590203	0.55711	2.09	1.50083	-0.035538	0.405025	0.814717	2.09
10.2594	0.0439639	0.0258363	2.34772	1.3299	0.878398	-0.854709	0.156409	-0.264189	-0.636572	0.487971	0.17	0.530495	-0.130709	0.162076	-0.35154	-0.487659	0.374585	0.122923	0.611866	-0.130709	-0.0882441	0.0457016	0.158008	1.56874	-0.337773	0.586773	0.563138	2.09	1.49713	-0.0384647	0.403104	0.824904	2.09
10.2794	0.0455879	0.0272934	2.34798	1.33058	0.8778	-0.854352	0.161008	-0.262371	-0.630708	0.494663	0.174641	0.520279	-0.130709	0.169683	-0.357468	-0.484714	0.387725	0.129117	0.611448	-0.130709	-0.0883575	0.0471943	0.158087	1.56599	-0.339516	0.583152	0.569422	2.09	1.49337	-0.0412806	0.401275	0.834831	2.09
10.2994	0.0469257	0.0286364	2.34829	1.33124	0.877182	-0.853997	0.165712	-0.260977	-0.624665	0.501861	0.179438	0.509859	-0.130709	0.177062	-0.362853	-0.481178	0.400555	0.135492	0.610046	-0.130709	-0.0885574	0.0483576	0.158151	1.56296	-0.341388	0.57931	0.575966	2.09	1.48951	-0.0439031	0.399578	0.844449	2.09
10.3194	0.0480161	0.0298459	2.3487	1.33189	0.876542	-0.853641	0.170505	-0.259964	-0.618489	0.509468	0.184406	0.499249	-0.130709	0.184352	-0.367689	-0.476849	0.413187	0.142168	0.607089	-0.130709	-0.0887886	0.0492318	0.158205	1.5596	-0.343435	0.575254	0.582755	2.09	1.4855	-0.0462862	0.398043	0.853754	2.09
